<?xml version="1.0" standalone="no"?>
<!DOCTYPE svg PUBLIC "-//W3C//DTD SVG 20010904//EN"
 "http://www.w3.org/TR/2001/REC-SVG-20010904/DTD/svg10.dtd">
<svg version="1.0" xmlns="http://www.w3.org/2000/svg"
 width="400.000000pt" height="400.000000pt" viewBox="0 0 400.000000 400.000000"
 preserveAspectRatio="xMidYMid meet">
<metadata>
Created by potrace 1.11, written by Peter Selinger 2001-2013
</metadata>
<g transform="translate(0.000000,400.000000) scale(0.100000,-0.100000)"
fill="#000000" stroke="none">
<path d="M59 3970 c-20 -16 -41 -42 -48 -57 -8 -21 -11 -513 -9 -1930 l3
-1902 29 -30 c15 -16 40 -34 55 -40 18 -8 578 -10 1928 -9 l1903 3 37 38 38
37 3 352 c2 250 -1 360 -9 380 -6 15 -27 42 -46 58 l-34 30 -1249 0 -1250 0 0
475 0 475 605 0 c666 0 636 -3 690 62 24 29 27 38 23 95 -3 49 -9 68 -28 89
-53 56 -30 54 -685 54 l-605 0 0 475 0 475 788 0 c729 0 790 1 821 18 50 25
74 63 78 124 5 62 -17 106 -69 138 -32 19 -53 20 -927 20 -866 0 -895 -1 -925
-19 -17 -11 -40 -35 -51 -53 -20 -32 -20 -53 -23 -1283 -2 -687 0 -1274 3
-1304 6 -44 14 -61 45 -95 l39 -41 1255 -3 1256 -2 0 -150 0 -150 -1700 0
-1700 0 0 1700 0 1700 1700 0 1700 0 0 -249 c0 -241 1 -249 23 -282 60 -90
194 -90 254 0 23 34 23 37 23 378 0 377 0 376 -60 427 l-32 26 -1906 0 -1907
0 -36 -30z"/>
</g>
</svg>
